/* XPM */
static char *_5912_098c081611e72737f715351fa123a5271af41a2f50e38cb38c51f27b03bfe518[] = {
/* columns rows colors chars-per-pixel */
"16 16 11 1 ",
"  c #020200000101",
". c #030300000101",
"X c #030301010101",
"o c #020200000202",
"O c #030300000202",
"+ c #020201010202",
"@ c #030301010202",
"# c #030301010303",
"$ c #040401010202",
"% c #040402020303",
"& c None",
/* pixels */
"&&&&&&&&&&O@ &&&",
"@@o&&&&&&$@@&&&&",
"&@@X&&&&o@@&&&&&",
"&X@@&&&&#%@&&&& ",
"&&o$.&&&X%@&&&@@",
"&&&&X.&&@%%@@@@.",
"&&&&&X.&O@%%%@$&",
"&&&&&&X.&oOX#o&&",
"&&&&&o&X.&&&&&&&",
"&&&&@@o&$%%#&&&&",
"&&&@%%@&$%%%+&&&",
"&&@%%%@&X%%%@$&&",
"&@%%%@&&&#%%%@+&",
"@%%%@&&&&&#@%%@&",
"+@%@&&&&&&&+@%@&",
"&@@&&&&&&&&&X@O&"
};
